<svg width="220" height="220" viewBox="0 0 220 220" fill="none" xmlns="http://www.w3.org/2000/svg">
<rect width="220" height="220" rx="110" fill="#231E2E"/>
<path d="M70.8125 107.938C71.1458 108.271 71.6667 108.438 72.375 108.438C73.0833 108.438 73.6875 108.292 74.1875 108C73.1042 101.667 72.375 97.9167 72 96.75C71.5417 95.5417 70.8542 94.9375 69.9375 94.9375C69.5208 94.9375 69.0208 95.0625 68.4375 95.3125L70.8125 107.938ZM58.4375 126.688C58.0208 127.271 57.8125 127.812 57.8125 128.312C57.8125 129.521 58.9375 130.542 61.1875 131.375C63.4792 132.167 66.25 132.667 69.5 132.875C70.0417 138.875 70.625 142.292 71.25 143.125C70.4583 144.667 68.2708 146.229 64.6875 147.812C61.1042 149.354 57.0625 150.125 52.5625 150.125C46.6042 150.125 41.5 148.854 37.25 146.312C33 143.729 30.875 140.417 30.875 136.375C30.875 135.292 30.9792 134.333 31.1875 133.5L44.5 74C47.8333 71.875 51.8125 70.2083 56.4375 69C61.0625 67.7917 65.875 67.1875 70.875 67.1875C78.0417 67.1875 84.1667 68.3958 89.25 70.8125C95.0417 73.5625 98.5625 77.5417 99.8125 82.75L114.062 141.688C109.729 147.312 102.667 150.125 92.875 150.125C88.125 150.125 84.1042 149.271 80.8125 147.562C77.5208 145.854 75.6042 143.417 75.0625 140.25L73.6875 132.625C76.1875 132.583 78.6042 132.104 80.9375 131.188C83.2708 130.271 84.4375 129.312 84.4375 128.312C84.4375 127.646 84.1667 127.104 83.625 126.688C82.0417 127.812 80.1042 128.667 77.8125 129.25C75.5208 129.833 73.3958 130.125 71.4375 130.125C65.8125 130.125 61.4792 128.979 58.4375 126.688ZM149.375 126.25C150.75 126 151.438 125.312 151.438 124.188C151.438 123.021 151.062 121.729 150.312 120.312C149.604 118.854 148.542 117.479 147.125 116.188C143.417 112.854 138.396 111.188 132.062 111.188C128.938 111.188 126.021 111.708 123.312 112.75C120.438 111.292 118.146 108.979 116.438 105.812C114.729 102.646 113.875 99.2292 113.875 95.5625C113.875 85.9792 117.875 78.5833 125.875 73.375C132.75 68.9167 141.229 66.6875 151.312 66.6875C158.812 66.6875 165.125 67.5 170.25 69.125C175.375 70.7083 179.562 72.75 182.812 75.25C183.771 78 184.25 80.8542 184.25 83.8125C184.25 86.7708 183.854 89.4583 183.062 91.875C182.271 94.2917 181.125 96.2292 179.625 97.6875C178.208 96.6458 175.646 95.5833 171.938 94.5C168.229 93.4167 164.854 92.875 161.812 92.875C158.771 92.875 156.729 93.0625 155.688 93.4375C154.688 93.8125 154.188 94.3958 154.188 95.1875C154.188 95.5625 154.25 95.9167 154.375 96.25C155.833 95.875 157.708 95.6875 160 95.6875C168.125 95.6875 174.75 97.6042 179.875 101.438C185.917 106.021 188.938 112.896 188.938 122.062C188.938 130.146 185.667 136.854 179.125 142.188C172.042 147.896 162.521 150.75 150.562 150.75C143.979 150.75 138.271 150.25 133.438 149.25C128.604 148.292 123.896 146.583 119.312 144.125C116.188 139.583 114.625 134.979 114.625 130.312C114.625 125.604 116.229 121.708 119.438 118.625C122.646 115.542 126.583 114 131.25 114C135.958 114 139.792 114.958 142.75 116.875C145.75 118.792 147.958 121.917 149.375 126.25Z" fill="white"/>
</svg>
